<svg
          width="52"
          height="51"
          viewBox="0 0 52 51"
          style="cursor: pointer"
          fill="none"
          xmlns="http://www.w3.org/2000/svg"
        >
          <path
            d="M1.47573 17C1.34375 17 1.22977 16.952 1.13379 16.856C1.03781 16.76 0.989817 16.6461 0.989817 16.5141V4.88824C0.989817 4.75626 1.03781 4.64228 1.13379 4.5463C1.22977 4.45032 1.34375 4.40233 1.47573 4.40233H5.07506C5.20704 4.40233 5.32102 4.45032 5.417 4.5463C5.51298 4.64228 5.56097 4.75626 5.56097 4.88824V13.3107H10.5461C10.678 13.3107 10.792 13.3587 10.888 13.4547C10.984 13.5506 11.032 13.6646 11.032 13.7966V16.5141C11.032 16.6461 10.984 16.76 10.888 16.856C10.792 16.952 10.678 17 10.5461 17H1.47573ZM3.52735 5.50012L3.40137 5.68009V5.87806L3.61733 5.84206L3.68932 5.68009L3.52735 5.50012ZM2.1416 5.86006C2.00963 5.81207 1.90165 5.77008 1.81766 5.73408C1.74568 5.68609 1.66769 5.72208 1.58371 5.84206C1.49972 5.95004 1.48773 6.04003 1.54771 6.11201C1.6077 6.172 1.67969 6.26198 1.76367 6.38196C1.82366 6.46595 1.87765 6.51994 1.92564 6.54393C1.98563 6.56793 2.06962 6.56193 2.1776 6.52594C2.27358 6.48994 2.33357 6.44795 2.35756 6.39996C2.38156 6.35197 2.39356 6.27398 2.39356 6.166C2.39356 6.07002 2.37556 6.00403 2.33957 5.96804C2.30357 5.92005 2.23759 5.88405 2.1416 5.86006ZM3.38337 6.43595L3.29339 6.23799L3.09543 6.34597L3.07743 6.54393L3.27539 6.59792L3.38337 6.43595ZM3.99526 6.27398C3.88728 6.26198 3.8153 6.29198 3.7793 6.36397C3.75531 6.41196 3.74931 6.45395 3.7613 6.48994C3.7853 6.51394 3.82129 6.54393 3.86928 6.57992C3.94127 6.63991 4.01326 6.65791 4.08525 6.63392C4.14523 6.59792 4.18723 6.56793 4.21122 6.54393C4.24722 6.51994 4.25921 6.47195 4.24722 6.39996C4.22322 6.32797 4.19323 6.29198 4.15723 6.29198C4.12124 6.29198 4.06725 6.28598 3.99526 6.27398ZM4.93109 6.7059L4.66114 6.66991L4.51717 6.88587L4.69713 7.10183L4.94909 6.99385L4.93109 6.7059ZM3.29339 7.74971C3.16142 7.61773 3.04744 7.56974 2.95145 7.60574C2.85547 7.64173 2.7235 7.70172 2.55553 7.7857C2.38756 7.85769 2.25558 7.92368 2.1596 7.98367C2.07562 8.03166 2.04562 8.14564 2.06962 8.3256C2.09361 8.50557 2.1476 8.61955 2.23159 8.66754C2.32757 8.71553 2.47154 8.75752 2.66351 8.79352C2.81948 8.82951 2.92746 8.82351 2.98745 8.77552C3.04744 8.71553 3.11942 8.61355 3.20341 8.46958C3.28739 8.31361 3.35338 8.18763 3.40137 8.09165C3.44936 7.99566 3.41337 7.88169 3.29339 7.74971ZM4.53516 8.12764C4.48717 8.07965 4.44518 8.04965 4.40919 8.03766C4.38519 8.01366 4.3432 8.01366 4.28321 8.03766C4.16323 8.09764 4.10924 8.18763 4.12124 8.30761C4.14523 8.45158 4.21722 8.53556 4.3372 8.55956C4.40919 8.57156 4.45718 8.55956 4.48117 8.52357C4.51717 8.48757 4.55316 8.43958 4.58915 8.37959C4.62515 8.29561 4.60715 8.21162 4.53516 8.12764ZM3.13142 9.53138C3.04744 9.4354 2.96945 9.39341 2.89746 9.4054C2.82548 9.4054 2.7295 9.4354 2.60952 9.49539C2.48954 9.54338 2.39356 9.59137 2.32157 9.63936C2.24958 9.67535 2.21959 9.76534 2.23159 9.90931C2.24359 10.0653 2.27358 10.1793 2.32157 10.2512C2.36956 10.3232 2.47754 10.3772 2.64551 10.4132C2.81348 10.4612 2.93946 10.4732 3.02344 10.4492C3.11942 10.4252 3.21541 10.3352 3.31139 10.1793C3.39537 10.0353 3.41337 9.92731 3.36538 9.85532C3.31739 9.77134 3.2394 9.66336 3.13142 9.53138ZM5.14705 10.8991L4.93109 10.8091L4.76912 10.9531L4.84111 11.1871L5.05707 11.0971L5.14705 10.8991ZM2.93346 11.349C2.90946 11.2171 2.87347 11.1271 2.82548 11.0791C2.77749 11.0311 2.6875 11.0011 2.55553 10.9891C2.43555 10.9771 2.35756 11.0071 2.32157 11.0791C2.29758 11.1391 2.26158 11.2231 2.21359 11.331C2.1776 11.427 2.1656 11.499 2.1776 11.547C2.1896 11.595 2.23159 11.655 2.30357 11.727C2.36356 11.775 2.41755 11.787 2.46554 11.763C2.51354 11.739 2.57352 11.703 2.64551 11.655C2.7295 11.595 2.80148 11.559 2.86147 11.547C2.93346 11.523 2.95745 11.457 2.93346 11.349ZM3.83329 12.2129L3.67132 12.1949L3.61733 12.3389L3.72531 12.5368L3.86928 12.3749L3.83329 12.2129ZM1.96164 12.6808L1.85366 12.5008L1.65569 12.6088L1.6377 12.8428L1.85366 12.8248L1.96164 12.6808ZM4.67914 13.7426C4.65514 13.5266 4.57715 13.4067 4.44518 13.3827C4.3252 13.3587 4.15723 13.3227 3.94127 13.2747C3.74931 13.2267 3.59933 13.2027 3.49135 13.2027C3.38337 13.2027 3.27539 13.2867 3.16741 13.4547C3.05943 13.6466 3.01144 13.8026 3.02344 13.9226C3.03544 14.0425 3.11342 14.1805 3.2574 14.3365C3.40137 14.4925 3.52735 14.5764 3.63533 14.5884C3.75531 14.6004 3.91128 14.5645 4.10324 14.4805C4.3192 14.3845 4.47517 14.2945 4.57116 14.2105C4.66714 14.1265 4.70313 13.9706 4.67914 13.7426ZM9.03433 14.4985C8.95035 14.2705 8.84837 14.1385 8.72839 14.1025C8.60841 14.0545 8.42844 14.0365 8.18849 14.0485C7.92454 14.0605 7.72057 14.0845 7.5766 14.1205C7.43263 14.1445 7.32465 14.2885 7.25266 14.5525C7.18067 14.7924 7.21067 14.9484 7.34264 15.0204C7.48662 15.0924 7.66658 15.1943 7.88254 15.3263C8.07451 15.4583 8.22448 15.5603 8.33246 15.6323C8.45244 15.6922 8.60241 15.6502 8.78238 15.5063C8.98634 15.3383 9.10032 15.1883 9.12431 15.0564C9.16031 14.9244 9.13031 14.7384 9.03433 14.4985ZM5.88491 14.2285C5.76493 14.1445 5.64496 14.1565 5.52498 14.2645C5.44099 14.3245 5.387 14.3785 5.36301 14.4265C5.33901 14.4625 5.34501 14.5225 5.38101 14.6064C5.417 14.7024 5.45299 14.7624 5.48899 14.7864C5.53698 14.8104 5.61496 14.8224 5.72294 14.8224C5.80693 14.8224 5.85492 14.8044 5.86692 14.7684C5.89091 14.7204 5.91491 14.6544 5.9389 14.5704C5.9629 14.4865 5.9749 14.4205 5.9749 14.3725C5.98689 14.3245 5.9569 14.2765 5.88491 14.2285ZM6.87473 14.3725C6.79075 14.2765 6.68876 14.2525 6.56879 14.3005C6.5088 14.3245 6.4788 14.3605 6.4788 14.4085C6.4788 14.4445 6.4788 14.4985 6.4788 14.5704C6.4908 14.6784 6.53879 14.7444 6.62278 14.7684C6.70676 14.7804 6.77275 14.7984 6.82074 14.8224C6.88073 14.8464 6.93472 14.8224 6.98271 14.7504C7.0307 14.6664 7.0427 14.6004 7.0187 14.5525C6.99471 14.5045 6.94672 14.4445 6.87473 14.3725ZM10.1861 14.5345L10.0961 14.4085L9.91617 14.4805L9.98815 14.6244L10.1141 14.6604L10.1861 14.5345ZM10.2761 15.0924C10.2521 15.0204 10.2161 14.9844 10.1681 14.9844C10.1321 14.9844 10.0841 14.9844 10.0241 14.9844C9.94016 14.9844 9.88017 15.0324 9.84418 15.1283C9.83218 15.2003 9.86218 15.2603 9.93416 15.3083C9.99415 15.3563 10.0361 15.3923 10.0601 15.4163C10.0961 15.4403 10.1381 15.4343 10.1861 15.3983C10.2941 15.3143 10.3241 15.2123 10.2761 15.0924ZM3.92328 15.2003C3.82729 15.1283 3.74931 15.0924 3.68932 15.0924C3.62933 15.0804 3.54534 15.1044 3.43736 15.1643C3.34138 15.2363 3.28739 15.3083 3.27539 15.3803C3.27539 15.4403 3.29339 15.5243 3.32938 15.6323C3.35338 15.7282 3.39537 15.7822 3.45536 15.7942C3.51535 15.7942 3.59334 15.7942 3.68932 15.7942C3.7853 15.7942 3.86329 15.7942 3.92328 15.7942C3.98326 15.7942 4.03126 15.7462 4.06725 15.6502C4.10324 15.5423 4.10924 15.4583 4.08525 15.3983C4.07325 15.3383 4.01926 15.2723 3.92328 15.2003ZM5.45299 15.4703C5.38101 15.3623 5.31502 15.3023 5.25503 15.2903C5.19504 15.2783 5.10506 15.2903 4.98508 15.3263C4.8651 15.3623 4.77512 15.4043 4.71513 15.4523C4.66714 15.4883 4.64314 15.5663 4.64314 15.6862C4.64314 15.8062 4.67314 15.8842 4.73313 15.9202C4.79311 15.9442 4.8771 15.9742 4.98508 16.0102C5.08106 16.0462 5.15905 16.0702 5.21904 16.0822C5.27902 16.0822 5.33901 16.0402 5.399 15.9562C5.48299 15.8602 5.53098 15.7822 5.54298 15.7222C5.55497 15.6502 5.52498 15.5663 5.45299 15.4703ZM6.85673 15.3623C6.74875 15.3143 6.65877 15.3383 6.58678 15.4343C6.5028 15.5303 6.4908 15.6203 6.55079 15.7042C6.58678 15.7642 6.62278 15.7942 6.65877 15.7942C6.69476 15.7942 6.74875 15.7882 6.82074 15.7762C6.91672 15.7402 6.97071 15.6802 6.98271 15.5963C6.99471 15.4763 6.95272 15.3983 6.85673 15.3623ZM10.0421 15.8662L9.93416 15.7762L9.77219 15.8482L9.86218 16.0102H10.0241L10.0421 15.8662ZM4.3372 16.0822L4.10324 16.1182V16.3161L4.24722 16.4241L4.3372 16.2801V16.0822ZM17.8192 17.18C16.6435 17.18 15.6116 17 14.7238 16.6401C13.848 16.2801 13.1521 15.7402 12.6362 15.0204C12.1323 14.2885 11.8563 13.3887 11.8083 12.3209C11.7724 11.2891 11.7724 10.2333 11.8083 9.15345C11.8563 8.09764 12.1323 7.20381 12.6362 6.47195C13.1401 5.74008 13.836 5.18218 14.7238 4.79825C15.6116 4.41433 16.6435 4.22236 17.8192 4.22236C18.995 4.22236 20.0268 4.41433 20.9147 4.79825C21.8025 5.18218 22.4984 5.74008 23.0023 6.47195C23.5182 7.20381 23.7941 8.09764 23.8301 9.15345C23.8661 10.2333 23.8661 11.2891 23.8301 12.3209C23.7821 13.3887 23.5002 14.2885 22.9843 15.0204C22.4804 15.7402 21.7845 16.2801 20.8967 16.6401C20.0208 17 18.995 17.18 17.8192 17.18ZM18.7191 5.41014C18.4671 5.30216 18.2692 5.20618 18.1252 5.12219C17.9812 5.03821 17.8252 5.0982 17.6573 5.30216C17.4773 5.50612 17.4353 5.67409 17.5313 5.80607C17.6393 5.93804 17.7592 6.11801 17.8912 6.34597C18.0112 6.53793 18.1132 6.67591 18.1972 6.75989C18.2812 6.83188 18.4311 6.84388 18.6471 6.79589C18.863 6.74789 18.983 6.66991 19.007 6.56193C19.043 6.44195 19.073 6.27398 19.097 6.05802C19.109 5.86606 19.091 5.72808 19.043 5.6441C18.995 5.56011 18.887 5.48213 18.7191 5.41014ZM20.8607 5.51812C20.7527 5.45813 20.6627 5.45813 20.5907 5.51812C20.5307 5.56611 20.4827 5.60811 20.4468 5.6441C20.4228 5.68009 20.4228 5.73408 20.4468 5.80607C20.4827 5.89005 20.5187 5.93804 20.5547 5.95004C20.6027 5.95004 20.6687 5.95004 20.7527 5.95004C20.8127 5.95004 20.8487 5.93205 20.8607 5.89605C20.8727 5.86006 20.8907 5.81207 20.9147 5.75208C20.9387 5.6441 20.9207 5.56611 20.8607 5.51812ZM16.1455 6.11201C16.1216 5.94404 16.0556 5.85406 15.9476 5.84206C15.8396 5.83006 15.7016 5.81207 15.5337 5.78807C15.3657 5.76408 15.2277 5.74608 15.1197 5.73408C15.0238 5.72208 14.9398 5.79407 14.8678 5.95004C14.7838 6.10601 14.7778 6.21999 14.8498 6.29198C14.9338 6.35197 15.0418 6.44195 15.1737 6.56193C15.2817 6.66991 15.3717 6.7419 15.4437 6.77789C15.5157 6.81388 15.6176 6.79589 15.7496 6.7239C15.9056 6.63991 16.0196 6.56193 16.0916 6.48994C16.1635 6.41796 16.1815 6.29198 16.1455 6.11201ZM20.7167 6.39996L20.5367 6.32797L20.4647 6.48994L20.5187 6.63392L20.6987 6.59792L20.7167 6.39996ZM21.7965 6.66991C21.6885 6.63392 21.6045 6.60392 21.5445 6.57992C21.4966 6.55593 21.4366 6.58592 21.3646 6.66991C21.2926 6.75389 21.2626 6.82588 21.2746 6.88587C21.2866 6.93386 21.3226 7.00585 21.3826 7.10183C21.4186 7.18581 21.4606 7.2338 21.5086 7.2458C21.5685 7.2458 21.6405 7.2398 21.7245 7.22781C21.8085 7.20381 21.8565 7.17382 21.8685 7.13782C21.8805 7.10183 21.8925 7.04184 21.9045 6.95786C21.9165 6.88587 21.9165 6.83188 21.9045 6.79589C21.8925 6.74789 21.8565 6.7059 21.7965 6.66991ZM14.3999 6.95786C14.2919 6.95786 14.2139 6.96385 14.1659 6.97585C14.1179 6.98785 14.0759 7.04184 14.0399 7.13782C14.0039 7.2338 13.9979 7.30579 14.0219 7.35378C14.0579 7.38978 14.1179 7.43777 14.2019 7.49776C14.2979 7.58174 14.3699 7.65373 14.4179 7.71372C14.4779 7.76171 14.5618 7.74971 14.6698 7.67772C14.7778 7.60574 14.8258 7.53375 14.8138 7.46176C14.8018 7.38978 14.7778 7.28779 14.7418 7.15582C14.7178 7.05984 14.6758 7.00585 14.6158 6.99385C14.5678 6.96985 14.4959 6.95786 14.3999 6.95786ZM20.4108 7.19181L20.2488 7.22781L20.2668 7.38978L20.4108 7.44377L20.5187 7.31779L20.4108 7.19181ZM17.8192 13.6706C18.2152 13.6706 18.5331 13.5566 18.7731 13.3287C19.013 13.0887 19.139 12.7168 19.151 12.2129C19.187 11.1811 19.187 10.1733 19.151 9.18944C19.139 8.68554 19.007 8.3196 18.7551 8.09165C18.5151 7.85169 18.2032 7.73171 17.8192 7.73171C17.4353 7.73171 17.1234 7.85169 16.8834 8.09165C16.6435 8.3196 16.5115 8.68554 16.4875 9.18944C16.4515 10.1733 16.4515 11.1811 16.4875 12.2129C16.5115 12.7168 16.6375 13.0887 16.8654 13.3287C17.1054 13.5566 17.4233 13.6706 17.8192 13.6706ZM21.0046 8.37959C20.8607 8.3316 20.7527 8.3376 20.6807 8.39759C20.6207 8.44558 20.5427 8.52957 20.4468 8.64954C20.3508 8.76952 20.2848 8.8655 20.2488 8.93749C20.2128 9.00948 20.2368 9.11146 20.3208 9.24343C20.4048 9.37541 20.4887 9.45339 20.5727 9.47739C20.6567 9.48939 20.7767 9.47739 20.9327 9.4414C21.1006 9.39341 21.2266 9.35141 21.3106 9.31542C21.4066 9.26743 21.4606 9.15345 21.4726 8.97348C21.4846 8.78152 21.4546 8.65554 21.3826 8.59555C21.3106 8.52357 21.1846 8.45158 21.0046 8.37959ZM21.8505 8.3436L21.7065 8.41559L21.7245 8.57756L21.8865 8.63155L21.9225 8.46958L21.8505 8.3436ZM15.1377 8.73953C15.0537 8.72753 14.9878 8.70953 14.9398 8.68554C14.8918 8.64954 14.8438 8.66754 14.7958 8.73953C14.7478 8.81151 14.7358 8.8715 14.7598 8.91949C14.7838 8.95549 14.8258 9.00948 14.8858 9.08146C14.9458 9.14145 14.9938 9.18944 15.0298 9.22544C15.0657 9.24943 15.1197 9.24943 15.1917 9.22544C15.2757 9.18944 15.3117 9.14745 15.2997 9.09946C15.2997 9.05147 15.2997 8.98548 15.2997 8.9015C15.2997 8.82951 15.2457 8.77552 15.1377 8.73953ZM13.896 9.00948C13.872 8.92549 13.812 8.8835 13.716 8.8835C13.656 8.8835 13.608 8.8895 13.572 8.9015C13.536 8.9015 13.512 8.93149 13.5 8.99148C13.464 9.09946 13.488 9.18944 13.572 9.26143C13.656 9.30942 13.746 9.30342 13.842 9.24343C13.914 9.18344 13.932 9.10546 13.896 9.00948ZM15.4617 10.0533C15.4137 9.90931 15.3477 9.83132 15.2637 9.81933C15.1917 9.80733 15.0777 9.80133 14.9218 9.80133C14.8138 9.80133 14.7418 9.82533 14.7058 9.87332C14.6818 9.92131 14.6518 9.99929 14.6158 10.1073C14.5798 10.2153 14.5498 10.3052 14.5258 10.3772C14.5138 10.4372 14.5558 10.5032 14.6518 10.5752C14.7478 10.6472 14.8258 10.6712 14.8858 10.6472C14.9458 10.6232 15.0238 10.5752 15.1197 10.5032C15.2397 10.4312 15.3357 10.3712 15.4077 10.3232C15.4797 10.2752 15.4977 10.1853 15.4617 10.0533ZM20.4468 9.85532C20.2908 9.79533 20.1708 9.82533 20.0868 9.9453C19.9908 10.0653 19.9848 10.1913 20.0688 10.3232C20.1168 10.3952 20.1648 10.4312 20.2128 10.4312C20.2608 10.4312 20.3268 10.4192 20.4108 10.3952C20.4827 10.3832 20.5247 10.3592 20.5367 10.3232C20.5487 10.2752 20.5547 10.2153 20.5547 10.1433C20.5547 10.0713 20.5547 10.0113 20.5547 9.9633C20.5547 9.91531 20.5187 9.87932 20.4468 9.85532ZM22.4444 9.92731C22.3484 9.90331 22.2824 9.91531 22.2464 9.9633C22.2224 9.99929 22.1864 10.0593 22.1384 10.1433C22.0785 10.2392 22.0844 10.3352 22.1564 10.4312C22.2284 10.5032 22.2824 10.5692 22.3184 10.6292C22.3544 10.6772 22.4144 10.6772 22.4984 10.6292C22.6064 10.5932 22.6723 10.5512 22.6963 10.5032C22.7203 10.4432 22.7263 10.3592 22.7143 10.2512C22.7023 10.0713 22.6124 9.9633 22.4444 9.92731ZM22.0485 11.1331C21.9645 11.1211 21.9045 11.1271 21.8685 11.1511C21.8445 11.1751 21.8205 11.2231 21.7965 11.2951C21.7605 11.355 21.7365 11.409 21.7245 11.457C21.7245 11.493 21.7485 11.535 21.7965 11.583C21.8445 11.643 21.8865 11.667 21.9225 11.655C21.9705 11.631 22.0245 11.607 22.0844 11.583C22.1924 11.523 22.2404 11.451 22.2284 11.367C22.2164 11.2951 22.1984 11.2411 22.1744 11.2051C22.1624 11.1691 22.1204 11.1451 22.0485 11.1331ZM20.4647 11.349C20.2968 11.2771 20.1588 11.3071 20.0508 11.439C19.9308 11.571 19.9188 11.709 20.0148 11.853C20.0628 11.9489 20.1108 12.0029 20.1588 12.0149C20.2188 12.0269 20.2968 12.0269 20.3928 12.0149C20.4887 11.9909 20.5487 11.9549 20.5727 11.9069C20.5967 11.859 20.6147 11.787 20.6267 11.691C20.6387 11.595 20.6327 11.523 20.6087 11.475C20.5967 11.427 20.5487 11.385 20.4647 11.349ZM13.644 11.763C13.572 11.655 13.5 11.619 13.428 11.655C13.3561 11.691 13.2541 11.727 13.1221 11.763C13.0141 11.799 12.9301 11.829 12.8702 11.853C12.8102 11.8769 12.7802 11.9489 12.7802 12.0689C12.7802 12.2129 12.7922 12.3269 12.8162 12.4108C12.8402 12.4828 12.9241 12.5428 13.0681 12.5908C13.2121 12.6268 13.3141 12.6268 13.3741 12.5908C13.446 12.5428 13.524 12.4588 13.608 12.3389C13.692 12.2189 13.74 12.1229 13.752 12.0509C13.776 11.9789 13.74 11.8829 13.644 11.763ZM22.7683 12.4468C22.6004 12.3869 22.4744 12.3809 22.3904 12.4288C22.3064 12.4768 22.2104 12.5728 22.1024 12.7168C21.9945 12.8608 21.9285 12.9807 21.9045 13.0767C21.8925 13.1727 21.9405 13.2927 22.0485 13.4367C22.1444 13.5806 22.2404 13.6466 22.3364 13.6346C22.4324 13.6226 22.5644 13.5926 22.7323 13.5446C22.8523 13.4966 22.9183 13.4367 22.9303 13.3647C22.9423 13.2927 22.9483 13.1907 22.9483 13.0587C22.9483 12.9028 22.9543 12.7768 22.9663 12.6808C22.9903 12.5728 22.9243 12.4948 22.7683 12.4468ZM15.8396 12.6448C15.8156 12.5488 15.7736 12.4948 15.7136 12.4828C15.6656 12.4708 15.5936 12.4648 15.4977 12.4648C15.3657 12.4528 15.2757 12.5128 15.2277 12.6448C15.1917 12.7168 15.1737 12.7768 15.1737 12.8248C15.1857 12.8728 15.2217 12.9208 15.2817 12.9687C15.3537 13.0287 15.4077 13.0527 15.4437 13.0407C15.4917 13.0167 15.5517 12.9867 15.6236 12.9507C15.6956 12.8908 15.7556 12.8488 15.8036 12.8248C15.8516 12.7888 15.8636 12.7288 15.8396 12.6448ZM20.2308 12.8788L20.0508 12.6988L19.8889 12.9328L20.0328 13.0947H20.2668L20.2308 12.8788ZM14.1839 12.8788L14.0579 12.8068L14.0219 12.9328L14.0759 13.0767L14.2199 13.0047L14.1839 12.8788ZM15.3357 13.7426C15.2757 13.6586 15.1917 13.6286 15.0837 13.6526C14.9998 13.6766 14.9278 13.6946 14.8678 13.7066C14.8078 13.7186 14.7778 13.7666 14.7778 13.8506C14.7778 13.9466 14.7958 14.0186 14.8318 14.0665C14.8678 14.1025 14.9338 14.1385 15.0298 14.1745C15.1017 14.1985 15.1497 14.1925 15.1737 14.1565C15.1977 14.1085 15.2397 14.0545 15.2997 13.9946C15.3717 13.8986 15.3837 13.8146 15.3357 13.7426ZM20.1948 13.9946C20.1948 13.8386 20.1288 13.7426 19.9968 13.7066C19.9248 13.6826 19.8769 13.6946 19.8529 13.7426C19.8409 13.7786 19.8109 13.8266 19.7629 13.8866C19.7149 13.9466 19.6729 13.9946 19.6369 14.0305C19.6009 14.0665 19.6009 14.1205 19.6369 14.1925C19.6969 14.2525 19.7449 14.2825 19.7809 14.2825C19.8289 14.2705 19.8949 14.2465 19.9788 14.2105C20.0508 14.1865 20.1048 14.1625 20.1408 14.1385C20.1768 14.1145 20.1948 14.0665 20.1948 13.9946ZM21.3286 13.8686C21.2326 13.7966 21.1546 13.7666 21.0946 13.7786C21.0346 13.7906 20.9567 13.8266 20.8607 13.8866C20.7647 13.9466 20.7107 14.0066 20.6987 14.0665C20.6867 14.1145 20.6987 14.1925 20.7347 14.3005C20.7707 14.4565 20.8727 14.5405 21.0406 14.5525C21.2086 14.5645 21.3226 14.4925 21.3826 14.3365C21.4186 14.2285 21.4426 14.1445 21.4546 14.0845C21.4666 14.0126 21.4246 13.9406 21.3286 13.8686ZM13.2121 13.9046C13.1521 13.8446 13.0741 13.8326 12.9781 13.8686C12.9301 13.8926 12.8881 13.9166 12.8522 13.9406C12.8282 13.9526 12.8162 13.9886 12.8162 14.0485C12.8162 14.1205 12.8222 14.1745 12.8342 14.2105C12.8582 14.2465 12.9061 14.2705 12.9781 14.2825C13.0621 14.3065 13.1281 14.3185 13.1761 14.3185C13.2241 14.3185 13.2721 14.2825 13.3201 14.2105C13.3681 14.1385 13.3741 14.0845 13.3381 14.0485C13.3021 14.0126 13.2601 13.9646 13.2121 13.9046ZM18.7371 14.3545L18.6291 14.2285L18.4491 14.2465L18.4851 14.4265L18.6291 14.4985L18.7371 14.3545ZM16.2355 14.3365L16.1276 14.3725L16.1455 14.4985L16.2715 14.5345L16.2355 14.3365ZM17.0814 14.4445C16.9734 14.4205 16.8894 14.4505 16.8294 14.5345C16.7814 14.6064 16.7394 14.6664 16.7034 14.7144C16.6794 14.7624 16.6914 14.8224 16.7394 14.8944C16.7994 14.9664 16.8534 14.9964 16.9014 14.9844C16.9614 14.9604 17.0334 14.9304 17.1174 14.8944C17.2014 14.8584 17.2673 14.8344 17.3153 14.8224C17.3633 14.7984 17.3873 14.7384 17.3873 14.6424C17.3873 14.5585 17.3573 14.5105 17.2973 14.4985C17.2373 14.4865 17.1654 14.4685 17.0814 14.4445ZM17.8912 14.5525L17.6753 14.5165L17.6933 14.7324L17.8372 14.8224L17.9272 14.6964L17.8912 14.5525ZM14.8678 14.7864C14.7118 14.7144 14.5858 14.6724 14.4899 14.6604C14.4059 14.6484 14.3039 14.7084 14.1839 14.8404C14.0639 14.9604 14.0099 15.0684 14.0219 15.1643C14.0339 15.2483 14.0819 15.3683 14.1659 15.5243C14.2379 15.6682 14.3099 15.7642 14.3819 15.8122C14.4539 15.8482 14.5678 15.8542 14.7238 15.8302C14.8918 15.7942 15.0058 15.7462 15.0657 15.6862C15.1377 15.6263 15.1857 15.5123 15.2097 15.3443C15.2337 15.1883 15.2157 15.0744 15.1557 15.0024C15.1077 14.9304 15.0118 14.8584 14.8678 14.7864ZM20.3748 15.1643L20.1948 15.2543L20.0688 15.4343L20.3028 15.4703L20.4647 15.3803L20.3748 15.1643ZM18.3411 15.1823C18.1372 15.1583 17.9872 15.1763 17.8912 15.2363C17.7952 15.2963 17.6993 15.4223 17.6033 15.6143C17.5193 15.8062 17.4833 15.9622 17.4953 16.0822C17.5193 16.1901 17.6153 16.3101 17.7832 16.4421C17.9392 16.5861 18.0712 16.6641 18.1792 16.6761C18.2991 16.6881 18.4491 16.6401 18.6291 16.5321C18.8091 16.4241 18.917 16.3221 18.953 16.2261C19.001 16.1182 19.001 15.9622 18.953 15.7582C18.917 15.5543 18.857 15.4163 18.7731 15.3443C18.7011 15.2603 18.5571 15.2063 18.3411 15.1823ZM15.8936 15.9022C15.8096 15.8902 15.7436 15.8902 15.6956 15.9022C15.6596 15.9022 15.6236 15.9322 15.5876 15.9922C15.5157 16.1002 15.5217 16.2081 15.6056 16.3161C15.6896 16.4241 15.7916 16.4541 15.9116 16.4061C16.0556 16.3581 16.1216 16.2681 16.1096 16.1362C16.1096 16.0642 16.0916 16.0162 16.0556 15.9922C16.0196 15.9562 15.9656 15.9262 15.8936 15.9022ZM31.2301 17.18C29.4185 17.18 27.9727 16.772 26.8929 15.9562C25.8131 15.1403 25.2372 13.8986 25.1653 12.2309C25.1533 11.739 25.1473 11.2051 25.1473 10.6292C25.1473 10.0533 25.1533 9.50738 25.1653 8.99148C25.2132 7.92368 25.4892 7.04184 25.9931 6.34597C26.509 5.6381 27.2169 5.1102 28.1167 4.76226C29.0165 4.40233 30.0544 4.22236 31.2301 4.22236C32.5019 4.22236 33.5937 4.40833 34.5055 4.78026C35.4294 5.14019 36.1432 5.6261 36.6471 6.23799C37.151 6.83788 37.409 7.50375 37.421 8.23562C37.421 8.3436 37.379 8.43958 37.295 8.52357C37.223 8.59555 37.133 8.63155 37.0251 8.63155H33.0478C32.8078 8.63155 32.6339 8.56556 32.5259 8.43358C32.4779 8.37359 32.4059 8.28961 32.3099 8.18163C32.226 8.06165 32.1 7.95967 31.932 7.87569C31.764 7.7797 31.5301 7.73171 31.2301 7.73171C30.3423 7.73171 29.8804 8.18163 29.8444 9.08146C29.8084 10.0773 29.8084 11.0971 29.8444 12.1409C29.8684 12.6808 30.0064 13.0707 30.2583 13.3107C30.5103 13.5506 30.8582 13.6706 31.3021 13.6706C31.758 13.6706 32.124 13.5746 32.3999 13.3827C32.6879 13.1787 32.8318 12.8428 32.8318 12.3749H31.986C31.854 12.3749 31.74 12.3269 31.6441 12.2309C31.5481 12.1349 31.5001 12.0209 31.5001 11.8889V9.89131C31.5001 9.75934 31.5481 9.64536 31.6441 9.54938C31.74 9.45339 31.854 9.4054 31.986 9.4054H36.9351C37.0671 9.4054 37.181 9.45339 37.277 9.54938C37.373 9.64536 37.421 9.75934 37.421 9.89131V12.2309C37.421 13.3107 37.157 14.2165 36.6291 14.9484C36.1012 15.6802 35.3694 16.2381 34.4335 16.6221C33.5097 16.994 32.4419 17.18 31.2301 17.18ZM28.7646 4.99622C28.6926 4.98422 28.6386 4.99622 28.6026 5.03221C28.5786 5.05621 28.5486 5.1042 28.5126 5.17619C28.4646 5.23617 28.4347 5.28417 28.4227 5.32016C28.4107 5.35615 28.4287 5.40414 28.4766 5.46413C28.5246 5.52412 28.5666 5.55411 28.6026 5.55411C28.6506 5.54212 28.7106 5.52412 28.7826 5.50012C28.8786 5.46413 28.9206 5.38615 28.9086 5.26617C28.9086 5.19418 28.9026 5.14019 28.8906 5.1042C28.8786 5.05621 28.8366 5.02021 28.7646 4.99622ZM32.148 5.24817L31.914 5.19418L31.788 5.28417L31.824 5.42814L32.04 5.50012L32.148 5.24817ZM34.1276 5.75208C34.1156 5.60811 34.0976 5.49413 34.0736 5.41014C34.0496 5.31416 33.9656 5.25417 33.8217 5.23017C33.6657 5.19418 33.5577 5.21218 33.4977 5.28417C33.4497 5.34415 33.3837 5.44014 33.2998 5.57211C33.2398 5.69209 33.2218 5.78207 33.2458 5.84206C33.2698 5.90205 33.3237 5.98004 33.4077 6.07602C33.4797 6.16 33.5457 6.20799 33.6057 6.21999C33.6657 6.23199 33.7497 6.21399 33.8576 6.166C33.9656 6.11801 34.0376 6.07002 34.0736 6.02203C34.1216 5.97404 34.1396 5.88405 34.1276 5.75208ZM29.9524 5.60811C29.7484 5.53612 29.5864 5.50012 29.4665 5.50012C29.3465 5.50012 29.2205 5.58411 29.0885 5.75208C28.9566 5.92005 28.9086 6.05802 28.9446 6.166C28.9805 6.27398 29.0585 6.41796 29.1785 6.59792C29.2745 6.7419 29.3705 6.81988 29.4665 6.83188C29.5624 6.84388 29.7004 6.82588 29.8804 6.77789C30.0244 6.7299 30.1203 6.66991 30.1683 6.59792C30.2163 6.52594 30.2403 6.41196 30.2403 6.25599C30.2403 6.07602 30.2343 5.93804 30.2223 5.84206C30.2103 5.74608 30.1203 5.66809 29.9524 5.60811ZM32.4719 6.02203C32.4479 5.95004 32.4299 5.89605 32.4179 5.86006C32.4179 5.81207 32.3819 5.78207 32.3099 5.77008C32.166 5.75808 32.064 5.81207 32.004 5.93205C31.98 6.00403 31.986 6.05202 32.022 6.07602C32.058 6.10001 32.1 6.13601 32.148 6.184C32.208 6.24399 32.2799 6.24999 32.3639 6.202C32.4479 6.14201 32.4839 6.08202 32.4719 6.02203ZM27.8828 5.89605C27.6668 5.77607 27.4988 5.74608 27.3788 5.80607C27.2589 5.85406 27.1089 5.95604 26.9289 6.11201C26.785 6.25599 26.719 6.38196 26.731 6.48994C26.755 6.59792 26.809 6.7419 26.8929 6.92186C26.9769 7.10183 27.0549 7.22781 27.1269 7.29979C27.2109 7.35978 27.3489 7.37778 27.5408 7.35378C27.7208 7.32979 27.8408 7.2758 27.9007 7.19181C27.9607 7.10783 28.0087 6.96985 28.0447 6.77789C28.0927 6.56193 28.1227 6.38796 28.1347 6.25599C28.1587 6.12401 28.0747 6.00403 27.8828 5.89605ZM32.4179 6.83188C32.3939 6.77189 32.3759 6.7239 32.3639 6.68791C32.3519 6.63991 32.3099 6.61592 32.2379 6.61592C32.166 6.61592 32.118 6.63392 32.094 6.66991C32.082 6.6939 32.064 6.7419 32.04 6.81388C32.016 6.88587 31.998 6.94586 31.986 6.99385C31.974 7.02984 31.998 7.07183 32.058 7.11983C32.178 7.20381 32.2919 7.20381 32.3999 7.11983C32.4599 7.08383 32.4779 7.04784 32.4539 7.01185C32.4419 6.96385 32.4299 6.90387 32.4179 6.83188ZM35.5493 7.01185C35.4893 6.89187 35.4354 6.80188 35.3874 6.7419C35.3394 6.68191 35.2434 6.65791 35.0994 6.66991C34.9434 6.6939 34.8235 6.7299 34.7395 6.77789C34.6555 6.81388 34.6015 6.91586 34.5775 7.08383C34.5415 7.22781 34.5655 7.32379 34.6495 7.37178C34.7335 7.40777 34.8415 7.46176 34.9734 7.53375C35.0814 7.59374 35.1654 7.62973 35.2254 7.64173C35.2974 7.64173 35.3814 7.59974 35.4773 7.51575C35.5733 7.43177 35.6213 7.35978 35.6213 7.29979C35.6213 7.22781 35.5973 7.13182 35.5493 7.01185ZM36.3952 6.97585L36.2512 7.02984L36.2152 7.2458L36.4312 7.20981L36.5931 7.08383L36.3952 6.97585ZM34.0196 7.35378C33.9956 7.2698 33.9776 7.20381 33.9656 7.15582C33.9536 7.09583 33.8996 7.05984 33.8037 7.04784C33.6957 7.03584 33.6117 7.04184 33.5517 7.06584C33.5037 7.07783 33.4557 7.13782 33.4077 7.2458C33.3597 7.34178 33.3477 7.41977 33.3717 7.47976C33.3957 7.52775 33.4437 7.59374 33.5157 7.67772C33.5997 7.74971 33.6657 7.7917 33.7137 7.8037C33.7737 7.8157 33.8517 7.7917 33.9476 7.73171C34.0316 7.68372 34.0676 7.63573 34.0556 7.58774C34.0436 7.52775 34.0316 7.44977 34.0196 7.35378ZM29.1245 7.91168C28.9805 7.85169 28.8606 7.88168 28.7646 8.00166C28.6686 8.10964 28.6686 8.22962 28.7646 8.3616C28.8006 8.43358 28.8426 8.46958 28.8906 8.46958C28.9386 8.46958 29.0045 8.46358 29.0885 8.45158C29.1485 8.42758 29.1785 8.39759 29.1785 8.3616C29.1905 8.3256 29.1965 8.27761 29.1965 8.21762C29.1965 8.13364 29.2025 8.06765 29.2145 8.01966C29.2265 7.97167 29.1965 7.93568 29.1245 7.91168ZM27.1989 8.63155L27.1089 8.54156L26.9469 8.57756L27.0009 8.73953L27.1629 8.77552L27.1989 8.63155ZM27.7928 8.95549C27.6848 8.95549 27.6008 8.94949 27.5408 8.93749C27.4808 8.92549 27.4328 8.96748 27.3968 9.06347C27.3608 9.15945 27.3608 9.23144 27.3968 9.27943C27.4448 9.31542 27.5108 9.36341 27.5948 9.4234C27.6668 9.48339 27.7208 9.51938 27.7568 9.53138C27.8048 9.54338 27.8708 9.52538 27.9547 9.47739C28.0387 9.4294 28.0867 9.38141 28.0987 9.33342C28.1227 9.28543 28.1227 9.21344 28.0987 9.11746C28.0747 9.03347 28.0387 8.98548 27.9907 8.97348C27.9427 8.96149 27.8768 8.95549 27.7928 8.95549ZM28.9806 9.67535L28.7826 9.81933L28.7646 10.0533L28.9806 10.0353L29.1065 9.89131L28.9806 9.67535ZM26.9469 10.0713C26.9109 9.9513 26.8449 9.89131 26.749 9.89131C26.665 9.89131 26.599 9.89731 26.551 9.90931C26.503 9.90931 26.467 9.9513 26.443 10.0353C26.407 10.1313 26.389 10.2093 26.389 10.2692C26.401 10.3172 26.449 10.3712 26.533 10.4312C26.605 10.4792 26.659 10.4792 26.695 10.4312C26.731 10.3832 26.785 10.3352 26.8569 10.2872C26.9409 10.2273 26.9709 10.1553 26.9469 10.0713ZM33.6057 10.0533C33.4617 10.0533 33.3777 10.0953 33.3537 10.1793C33.3297 10.2512 33.2938 10.3532 33.2458 10.4852C33.2098 10.5932 33.1918 10.6832 33.1918 10.7552C33.1918 10.8151 33.2338 10.8811 33.3177 10.9531C33.4257 11.0371 33.5097 11.0851 33.5697 11.0971C33.6417 11.0971 33.7317 11.0611 33.8397 10.9891C33.9476 10.9171 34.0016 10.8511 34.0016 10.7911C34.0136 10.7192 34.0016 10.6232 33.9656 10.5032C33.9296 10.3592 33.8936 10.2512 33.8576 10.1793C33.8337 10.0953 33.7497 10.0533 33.6057 10.0533ZM32.6519 10.7372C32.5559 10.6892 32.4779 10.6592 32.4179 10.6472C32.3579 10.6352 32.2919 10.6712 32.22 10.7552C32.148 10.8271 32.118 10.8931 32.13 10.9531C32.142 11.0131 32.172 11.0851 32.22 11.1691C32.2559 11.2531 32.2979 11.2951 32.3459 11.2951C32.3939 11.2831 32.4599 11.2711 32.5439 11.2591C32.6279 11.2471 32.6879 11.2351 32.7239 11.2231C32.7599 11.1991 32.7838 11.1451 32.7958 11.0611C32.8078 10.9771 32.8078 10.9111 32.7958 10.8631C32.7838 10.8151 32.7359 10.7732 32.6519 10.7372ZM35.4953 10.8451L35.3334 10.8991L35.3694 11.0611L35.5493 10.9891L35.4953 10.8451ZM28.0087 11.439C28.0087 11.3071 27.9907 11.2111 27.9547 11.1511C27.9307 11.0911 27.8528 11.0371 27.7208 10.9891C27.5768 10.9531 27.4688 10.9411 27.3968 10.9531C27.3249 10.9531 27.2469 11.0131 27.1629 11.1331C27.0669 11.2531 27.0189 11.355 27.0189 11.439C27.0309 11.511 27.0789 11.607 27.1629 11.727C27.2469 11.847 27.3249 11.9069 27.3968 11.9069C27.4688 11.8949 27.5708 11.8709 27.7028 11.835C27.8228 11.799 27.9007 11.757 27.9367 11.709C27.9847 11.649 28.0087 11.559 28.0087 11.439ZM34.7575 11.475L34.5955 11.547L34.5595 11.709L34.7035 11.745L34.7935 11.655L34.7575 11.475ZM26.281 11.8709L26.0651 11.763L25.9391 11.9609L26.0291 12.1229H26.2631L26.281 11.8709ZM28.3327 12.9328C28.1047 12.7528 27.9127 12.6868 27.7568 12.7348C27.6128 12.7828 27.4208 12.8848 27.1809 13.0407C26.9769 13.1727 26.8569 13.2987 26.8209 13.4187C26.785 13.5386 26.797 13.7186 26.8569 13.9586C26.9289 14.2225 26.9889 14.4325 27.0369 14.5884C27.0969 14.7324 27.2709 14.8164 27.5588 14.8404C27.8708 14.8644 28.0927 14.8284 28.2247 14.7324C28.3567 14.6364 28.4826 14.4445 28.6026 14.1565C28.7226 13.8686 28.7646 13.6466 28.7286 13.4906C28.6926 13.3227 28.5606 13.1367 28.3327 12.9328ZM36.7011 13.0407C36.6051 12.8728 36.5032 12.7768 36.3952 12.7528C36.2992 12.7288 36.1552 12.7348 35.9633 12.7708C35.7953 12.8068 35.6813 12.8608 35.6213 12.9328C35.5613 13.0047 35.5193 13.1307 35.4953 13.3107C35.4833 13.4787 35.5013 13.5986 35.5493 13.6706C35.5973 13.7426 35.6993 13.8146 35.8553 13.8866C36.0113 13.9586 36.1312 13.9946 36.2152 13.9946C36.3112 13.9946 36.4192 13.9286 36.5392 13.7966C36.6711 13.6526 36.7551 13.5326 36.7911 13.4367C36.8271 13.3407 36.7971 13.2087 36.7011 13.0407ZM34.3975 13.3107C34.1936 13.2867 34.0376 13.2927 33.9296 13.3287C33.8337 13.3527 33.7437 13.4547 33.6597 13.6346C33.5877 13.8146 33.5697 13.9586 33.6057 14.0665C33.6417 14.1625 33.7377 14.2765 33.8936 14.4085C34.0136 14.5165 34.1156 14.5525 34.1996 14.5165C34.2956 14.4805 34.4155 14.4205 34.5595 14.3365C34.7035 14.2525 34.8115 14.1805 34.8835 14.1205C34.9674 14.0605 34.9914 13.9526 34.9554 13.7966C34.9195 13.6046 34.8595 13.4846 34.7755 13.4367C34.7035 13.3767 34.5775 13.3347 34.3975 13.3107ZM29.3945 14.0485L29.1245 14.1385L29.1965 14.4085L29.4305 14.3905L29.5205 14.2105L29.3945 14.0485ZM30.3663 14.5704C30.2583 14.5105 30.1743 14.5045 30.1143 14.5525C30.0663 14.5884 30.0004 14.6544 29.9164 14.7504C29.8324 14.8224 29.7844 14.8824 29.7724 14.9304C29.7604 14.9784 29.7784 15.0504 29.8264 15.1463C29.8984 15.2783 29.9464 15.3863 29.9704 15.4703C30.0064 15.5423 30.0963 15.5723 30.2403 15.5603C30.3843 15.5363 30.4563 15.4823 30.4563 15.3983C30.4563 15.3023 30.4683 15.1823 30.4923 15.0384C30.5043 14.9184 30.5103 14.8224 30.5103 14.7504C30.5223 14.6784 30.4743 14.6184 30.3663 14.5704ZM32.8858 15.3263C32.7898 15.2663 32.7119 15.2483 32.6519 15.2723C32.6039 15.2843 32.5439 15.3263 32.4719 15.3983C32.3879 15.4583 32.3339 15.5183 32.3099 15.5783C32.2859 15.6263 32.2979 15.6982 32.3459 15.7942C32.3939 15.9142 32.4359 15.9982 32.4719 16.0462C32.5199 16.0942 32.6039 16.1122 32.7239 16.1002C32.8558 16.0882 32.9458 16.0582 32.9938 16.0102C33.0418 15.9622 33.0778 15.8722 33.1018 15.7402C33.1378 15.6323 33.1318 15.5543 33.0838 15.5063C33.0478 15.4463 32.9818 15.3863 32.8858 15.3263ZM28.3687 15.6682L28.1707 15.7042L28.2247 15.7942L28.3507 15.8302L28.3687 15.6682ZM44.7264 17.18C43.5506 17.18 42.5188 17 41.6309 16.6401C40.7551 16.2801 40.0592 15.7402 39.5433 15.0204C39.0394 14.2885 38.7635 13.3887 38.7155 12.3209C38.6795 11.2891 38.6795 10.2333 38.7155 9.15345C38.7635 8.09764 39.0394 7.20381 39.5433 6.47195C40.0472 5.74008 40.7431 5.18218 41.6309 4.79825C42.5188 4.41433 43.5506 4.22236 44.7264 4.22236C45.9022 4.22236 46.934 4.41433 47.8218 4.79825C48.7096 5.18218 49.4055 5.74008 49.9094 6.47195C50.4253 7.20381 50.7013 8.09764 50.7373 9.15345C50.7733 10.2333 50.7733 11.2891 50.7373 12.3209C50.6893 13.3887 50.4073 14.2885 49.8914 15.0204C49.3875 15.7402 48.6916 16.2801 47.8038 16.6401C46.928 17 45.9022 17.18 44.7264 17.18ZM45.6262 5.41014C45.3743 5.30216 45.1763 5.20618 45.0323 5.12219C44.8883 5.03821 44.7324 5.0982 44.5644 5.30216C44.3844 5.50612 44.3424 5.67409 44.4384 5.80607C44.5464 5.93804 44.6664 6.11801 44.7984 6.34597C44.9183 6.53793 45.0203 6.67591 45.1043 6.75989C45.1883 6.83188 45.3383 6.84388 45.5542 6.79589C45.7702 6.74789 45.8902 6.66991 45.9142 6.56193C45.9501 6.44195 45.9801 6.27398 46.0041 6.05802C46.0161 5.86606 45.9981 5.72808 45.9501 5.6441C45.9022 5.56011 45.7942 5.48213 45.6262 5.41014ZM47.7678 5.51812C47.6598 5.45813 47.5698 5.45813 47.4979 5.51812C47.4379 5.56611 47.3899 5.60811 47.3539 5.6441C47.3299 5.68009 47.3299 5.73408 47.3539 5.80607C47.3899 5.89005 47.4259 5.93804 47.4619 5.95004C47.5099 5.95004 47.5758 5.95004 47.6598 5.95004C47.7198 5.95004 47.7558 5.93205 47.7678 5.89605C47.7798 5.86006 47.7978 5.81207 47.8218 5.75208C47.8458 5.6441 47.8278 5.56611 47.7678 5.51812ZM43.0527 6.11201C43.0287 5.94404 42.9627 5.85406 42.8547 5.84206C42.7467 5.83006 42.6088 5.81207 42.4408 5.78807C42.2728 5.76408 42.1349 5.74608 42.0269 5.73408C41.9309 5.72208 41.8469 5.79407 41.7749 5.95004C41.6909 6.10601 41.6849 6.21999 41.7569 6.29198C41.8409 6.35197 41.9489 6.44195 42.0809 6.56193C42.1888 6.66991 42.2788 6.7419 42.3508 6.77789C42.4228 6.81388 42.5248 6.79589 42.6568 6.7239C42.8127 6.63991 42.9267 6.56193 42.9987 6.48994C43.0707 6.41796 43.0887 6.29198 43.0527 6.11201ZM47.6238 6.39996L47.4439 6.32797L47.3719 6.48994L47.4259 6.63392L47.6058 6.59792L47.6238 6.39996ZM48.7036 6.66991C48.5957 6.63392 48.5117 6.60392 48.4517 6.57992C48.4037 6.55593 48.3437 6.58592 48.2717 6.66991C48.1997 6.75389 48.1697 6.82588 48.1817 6.88587C48.1937 6.93386 48.2297 7.00585 48.2897 7.10183C48.3257 7.18581 48.3677 7.2338 48.4157 7.2458C48.4757 7.2458 48.5477 7.2398 48.6317 7.22781C48.7156 7.20381 48.7636 7.17382 48.7756 7.13782C48.7876 7.10183 48.7996 7.04184 48.8116 6.95786C48.8236 6.88587 48.8236 6.83188 48.8116 6.79589C48.7996 6.74789 48.7636 6.7059 48.7036 6.66991ZM41.307 6.95786C41.199 6.95786 41.121 6.96385 41.073 6.97585C41.0251 6.98785 40.9831 7.04184 40.9471 7.13782C40.9111 7.2338 40.9051 7.30579 40.9291 7.35378C40.9651 7.38978 41.0251 7.43777 41.109 7.49776C41.205 7.58174 41.277 7.65373 41.325 7.71372C41.385 7.76171 41.469 7.74971 41.577 7.67772C41.6849 7.60574 41.7329 7.53375 41.7209 7.46176C41.7089 7.38978 41.6849 7.28779 41.6489 7.15582C41.6249 7.05984 41.583 7.00585 41.523 6.99385C41.475 6.96985 41.403 6.95786 41.307 6.95786ZM47.3179 7.19181L47.1559 7.22781L47.1739 7.38978L47.3179 7.44377L47.4259 7.31779L47.3179 7.19181ZM44.7264 13.6706C45.1223 13.6706 45.4402 13.5566 45.6802 13.3287C45.9202 13.0887 46.0461 12.7168 46.0581 12.2129C46.0941 11.1811 46.0941 10.1733 46.0581 9.18944C46.0461 8.68554 45.9142 8.3196 45.6622 8.09165C45.4222 7.85169 45.1103 7.73171 44.7264 7.73171C44.3424 7.73171 44.0305 7.85169 43.7905 8.09165C43.5506 8.3196 43.4186 8.68554 43.3946 9.18944C43.3586 10.1733 43.3586 11.1811 43.3946 12.2129C43.4186 12.7168 43.5446 13.0887 43.7725 13.3287C44.0125 13.5566 44.3304 13.6706 44.7264 13.6706ZM47.9118 8.37959C47.7678 8.3316 47.6598 8.3376 47.5878 8.39759C47.5279 8.44558 47.4499 8.52957 47.3539 8.64954C47.2579 8.76952 47.1919 8.8655 47.1559 8.93749C47.1199 9.00948 47.1439 9.11146 47.2279 9.24343C47.3119 9.37541 47.3959 9.45339 47.4799 9.47739C47.5638 9.48939 47.6838 9.47739 47.8398 9.4414C48.0078 9.39341 48.1337 9.35141 48.2177 9.31542C48.3137 9.26743 48.3677 9.15345 48.3797 8.97348C48.3917 8.78152 48.3617 8.65554 48.2897 8.59555C48.2177 8.52357 48.0918 8.45158 47.9118 8.37959ZM48.7576 8.3436L48.6137 8.41559L48.6317 8.57756L48.7936 8.63155L48.8296 8.46958L48.7576 8.3436ZM42.0449 8.73953C41.9609 8.72753 41.8949 8.70953 41.8469 8.68554C41.7989 8.64954 41.7509 8.66754 41.7029 8.73953C41.6549 8.81151 41.6429 8.8715 41.6669 8.91949C41.6909 8.95549 41.7329 9.00948 41.7929 9.08146C41.8529 9.14145 41.9009 9.18944 41.9369 9.22544C41.9729 9.24943 42.0269 9.24943 42.0989 9.22544C42.1828 9.18944 42.2188 9.14745 42.2068 9.09946C42.2068 9.05147 42.2068 8.98548 42.2068 8.9015C42.2068 8.82951 42.1528 8.77552 42.0449 8.73953ZM40.8031 9.00948C40.7791 8.92549 40.7191 8.8835 40.6231 8.8835C40.5631 8.8835 40.5152 8.8895 40.4792 8.9015C40.4432 8.9015 40.4192 8.93149 40.4072 8.99148C40.3712 9.09946 40.3952 9.18944 40.4792 9.26143C40.5631 9.30942 40.6531 9.30342 40.7491 9.24343C40.8211 9.18344 40.8391 9.10546 40.8031 9.00948ZM42.3688 10.0533C42.3208 9.90931 42.2548 9.83132 42.1708 9.81933C42.0989 9.80733 41.9849 9.80133 41.8289 9.80133C41.7209 9.80133 41.6489 9.82533 41.6129 9.87332C41.589 9.92131 41.559 9.99929 41.523 10.1073C41.487 10.2153 41.457 10.3052 41.433 10.3772C41.421 10.4372 41.463 10.5032 41.559 10.5752C41.6549 10.6472 41.7329 10.6712 41.7929 10.6472C41.8529 10.6232 41.9309 10.5752 42.0269 10.5032C42.1468 10.4312 42.2428 10.3712 42.3148 10.3232C42.3868 10.2752 42.4048 10.1853 42.3688 10.0533ZM47.3539 9.85532C47.1979 9.79533 47.0779 9.82533 46.994 9.9453C46.898 10.0653 46.892 10.1913 46.976 10.3232C47.0239 10.3952 47.0719 10.4312 47.1199 10.4312C47.1679 10.4312 47.2339 10.4192 47.3179 10.3952C47.3899 10.3832 47.4319 10.3592 47.4439 10.3232C47.4559 10.2752 47.4619 10.2153 47.4619 10.1433C47.4619 10.0713 47.4619 10.0113 47.4619 9.9633C47.4619 9.91531 47.4259 9.87932 47.3539 9.85532ZM49.3515 9.92731C49.2555 9.90331 49.1895 9.91531 49.1536 9.9633C49.1296 9.99929 49.0936 10.0593 49.0456 10.1433C48.9856 10.2392 48.9916 10.3352 49.0636 10.4312C49.1356 10.5032 49.1895 10.5692 49.2255 10.6292C49.2615 10.6772 49.3215 10.6772 49.4055 10.6292C49.5135 10.5932 49.5795 10.5512 49.6035 10.5032C49.6275 10.4432 49.6335 10.3592 49.6215 10.2512C49.6095 10.0713 49.5195 9.9633 49.3515 9.92731ZM48.9556 11.1331C48.8716 11.1211 48.8116 11.1271 48.7756 11.1511C48.7516 11.1751 48.7276 11.2231 48.7036 11.2951C48.6676 11.355 48.6436 11.409 48.6317 11.457C48.6317 11.493 48.6556 11.535 48.7036 11.583C48.7516 11.643 48.7936 11.667 48.8296 11.655C48.8776 11.631 48.9316 11.607 48.9916 11.583C49.0996 11.523 49.1476 11.451 49.1356 11.367C49.1236 11.2951 49.1056 11.2411 49.0816 11.2051C49.0696 11.1691 49.0276 11.1451 48.9556 11.1331ZM47.3719 11.349C47.2039 11.2771 47.0659 11.3071 46.958 11.439C46.838 11.571 46.826 11.709 46.922 11.853C46.97 11.9489 47.0179 12.0029 47.0659 12.0149C47.1259 12.0269 47.2039 12.0269 47.2999 12.0149C47.3959 11.9909 47.4559 11.9549 47.4799 11.9069C47.5039 11.859 47.5219 11.787 47.5339 11.691C47.5459 11.595 47.5399 11.523 47.5159 11.475C47.5039 11.427 47.4559 11.385 47.3719 11.349ZM40.5511 11.763C40.4792 11.655 40.4072 11.619 40.3352 11.655C40.2632 11.691 40.1612 11.727 40.0292 11.763C39.9213 11.799 39.8373 11.829 39.7773 11.853C39.7173 11.8769 39.6873 11.9489 39.6873 12.0689C39.6873 12.2129 39.6993 12.3269 39.7233 12.4108C39.7473 12.4828 39.8313 12.5428 39.9753 12.5908C40.1192 12.6268 40.2212 12.6268 40.2812 12.5908C40.3532 12.5428 40.4312 12.4588 40.5152 12.3389C40.5991 12.2189 40.6471 12.1229 40.6591 12.0509C40.6831 11.9789 40.6471 11.8829 40.5511 11.763ZM49.6755 12.4468C49.5075 12.3869 49.3815 12.3809 49.2975 12.4288C49.2135 12.4768 49.1176 12.5728 49.0096 12.7168C48.9016 12.8608 48.8356 12.9807 48.8116 13.0767C48.7996 13.1727 48.8476 13.2927 48.9556 13.4367C49.0516 13.5806 49.1476 13.6466 49.2435 13.6346C49.3395 13.6226 49.4715 13.5926 49.6395 13.5446C49.7594 13.4966 49.8254 13.4367 49.8374 13.3647C49.8494 13.2927 49.8554 13.1907 49.8554 13.0587C49.8554 12.9028 49.8614 12.7768 49.8734 12.6808C49.8974 12.5728 49.8314 12.4948 49.6755 12.4468ZM42.7467 12.6448C42.7227 12.5488 42.6808 12.4948 42.6208 12.4828C42.5728 12.4708 42.5008 12.4648 42.4048 12.4648C42.2728 12.4528 42.1828 12.5128 42.1349 12.6448C42.0989 12.7168 42.0809 12.7768 42.0809 12.8248C42.0929 12.8728 42.1289 12.9208 42.1888 12.9687C42.2608 13.0287 42.3148 13.0527 42.3508 13.0407C42.3988 13.0167 42.4588 12.9867 42.5308 12.9507C42.6028 12.8908 42.6628 12.8488 42.7107 12.8248C42.7587 12.7888 42.7707 12.7288 42.7467 12.6448ZM47.1379 12.8788L46.958 12.6988L46.796 12.9328L46.94 13.0947H47.1739L47.1379 12.8788ZM41.091 12.8788L40.9651 12.8068L40.9291 12.9328L40.9831 13.0767L41.127 13.0047L41.091 12.8788ZM42.2428 13.7426C42.1828 13.6586 42.0989 13.6286 41.9909 13.6526C41.9069 13.6766 41.8349 13.6946 41.7749 13.7066C41.7149 13.7186 41.6849 13.7666 41.6849 13.8506C41.6849 13.9466 41.7029 14.0186 41.7389 14.0665C41.7749 14.1025 41.8409 14.1385 41.9369 14.1745C42.0089 14.1985 42.0569 14.1925 42.0809 14.1565C42.1049 14.1085 42.1468 14.0545 42.2068 13.9946C42.2788 13.8986 42.2908 13.8146 42.2428 13.7426ZM47.1019 13.9946C47.1019 13.8386 47.0359 13.7426 46.904 13.7066C46.832 13.6826 46.784 13.6946 46.76 13.7426C46.748 13.7786 46.718 13.8266 46.67 13.8866C46.622 13.9466 46.58 13.9946 46.544 14.0305C46.508 14.0665 46.508 14.1205 46.544 14.1925C46.604 14.2525 46.652 14.2825 46.688 14.2825C46.736 14.2705 46.802 14.2465 46.886 14.2105C46.958 14.1865 47.0119 14.1625 47.0479 14.1385C47.0839 14.1145 47.1019 14.0665 47.1019 13.9946ZM48.2357 13.8686C48.1397 13.7966 48.0618 13.7666 48.0018 13.7786C47.9418 13.7906 47.8638 13.8266 47.7678 13.8866C47.6718 13.9466 47.6178 14.0066 47.6058 14.0665C47.5938 14.1145 47.6058 14.1925 47.6418 14.3005C47.6778 14.4565 47.7798 14.5405 47.9478 14.5525C48.1157 14.5645 48.2297 14.4925 48.2897 14.3365C48.3257 14.2285 48.3497 14.1445 48.3617 14.0845C48.3737 14.0126 48.3317 13.9406 48.2357 13.8686ZM40.1192 13.9046C40.0592 13.8446 39.9812 13.8326 39.8853 13.8686C39.8373 13.8926 39.7953 13.9166 39.7593 13.9406C39.7353 13.9526 39.7233 13.9886 39.7233 14.0485C39.7233 14.1205 39.7293 14.1745 39.7413 14.2105C39.7653 14.2465 39.8133 14.2705 39.8853 14.2825C39.9693 14.3065 40.0352 14.3185 40.0832 14.3185C40.1312 14.3185 40.1792 14.2825 40.2272 14.2105C40.2752 14.1385 40.2812 14.0845 40.2452 14.0485C40.2092 14.0126 40.1672 13.9646 40.1192 13.9046ZM45.6442 14.3545L45.5362 14.2285L45.3563 14.2465L45.3922 14.4265L45.5362 14.4985L45.6442 14.3545ZM43.1427 14.3365L43.0347 14.3725L43.0527 14.4985L43.1787 14.5345L43.1427 14.3365ZM43.9885 14.4445C43.8805 14.4205 43.7965 14.4505 43.7366 14.5345C43.6886 14.6064 43.6466 14.6664 43.6106 14.7144C43.5866 14.7624 43.5986 14.8224 43.6466 14.8944C43.7066 14.9664 43.7606 14.9964 43.8085 14.9844C43.8685 14.9604 43.9405 14.9304 44.0245 14.8944C44.1085 14.8584 44.1745 14.8344 44.2225 14.8224C44.2705 14.7984 44.2945 14.7384 44.2945 14.6424C44.2945 14.5585 44.2645 14.5105 44.2045 14.4985C44.1445 14.4865 44.0725 14.4685 43.9885 14.4445ZM44.7984 14.5525L44.5824 14.5165L44.6004 14.7324L44.7444 14.8224L44.8344 14.6964L44.7984 14.5525ZM41.7749 14.7864C41.6189 14.7144 41.493 14.6724 41.397 14.6604C41.313 14.6484 41.211 14.7084 41.091 14.8404C40.9711 14.9604 40.9171 15.0684 40.9291 15.1643C40.9411 15.2483 40.9891 15.3683 41.073 15.5243C41.145 15.6682 41.217 15.7642 41.289 15.8122C41.361 15.8482 41.475 15.8542 41.6309 15.8302C41.7989 15.7942 41.9129 15.7462 41.9729 15.6862C42.0449 15.6263 42.0929 15.5123 42.1169 15.3443C42.1409 15.1883 42.1229 15.0744 42.0629 15.0024C42.0149 14.9304 41.9189 14.8584 41.7749 14.7864ZM47.2819 15.1643L47.1019 15.2543L46.976 15.4343L47.2099 15.4703L47.3719 15.3803L47.2819 15.1643ZM45.2483 15.1823C45.0443 15.1583 44.8943 15.1763 44.7984 15.2363C44.7024 15.2963 44.6064 15.4223 44.5104 15.6143C44.4264 15.8062 44.3904 15.9622 44.4024 16.0822C44.4264 16.1901 44.5224 16.3101 44.6904 16.4421C44.8464 16.5861 44.9783 16.6641 45.0863 16.6761C45.2063 16.6881 45.3563 16.6401 45.5362 16.5321C45.7162 16.4241 45.8242 16.3221 45.8602 16.2261C45.9082 16.1182 45.9082 15.9622 45.8602 15.7582C45.8242 15.5543 45.7642 15.4163 45.6802 15.3443C45.6082 15.2603 45.4642 15.2063 45.2483 15.1823ZM42.8007 15.9022C42.7167 15.8902 42.6508 15.8902 42.6028 15.9022C42.5668 15.9022 42.5308 15.9322 42.4948 15.9922C42.4228 16.1002 42.4288 16.2081 42.5128 16.3161C42.5968 16.4241 42.6987 16.4541 42.8187 16.4061C42.9627 16.3581 43.0287 16.2681 43.0167 16.1362C43.0167 16.0642 42.9987 16.0162 42.9627 15.9922C42.9267 15.9562 42.8727 15.9262 42.8007 15.9022Z"
            fill="#B0B0B0"
          />
          <circle cx="13.5" cy="38.5" r="12.5" fill="#B0B0B0" />
          <circle cx="25.5" cy="38.5" r="12.5" fill="white" />
          <circle cx="38.5" cy="38.5" r="12.5" fill="#B0B0B0" />
        </svg>
